<svg xmlns="http://www.w3.org/2000/svg" width="1200" height="675" viewBox="0 0 1200 675" role="img" aria-labelledby="title desc">
  <title id="title">How to Read Large TXT Files Without Lag Workflow</title>
  <desc id="desc">ONNELLAB workflow diagram for large TXT file reader.</desc>
  <rect width="1200" height="675" fill="#fbf7ef"/>
  <rect x="54" y="48" width="1092" height="579" rx="28" fill="#f7f2e9" stroke="#ded7ca" stroke-width="2"/>
  <text x="92" y="120" fill="#2f302c" font-family="Inter, system-ui, sans-serif" font-size="40" font-weight="720">How to Read Large TXT Files Without Lag Workflow</text>
  <text x="92" y="164" fill="#6c675e" font-family="Inter, system-ui, sans-serif" font-size="20">A practical workflow · large TXT file reader</text>
  <g transform="translate(92 220)"><rect width="220" height="150" rx="18" fill="#fffdf8" stroke="#d8d0c3" stroke-width="2"/><text x="24" y="48" fill="#2f302c" font-family="Inter, system-ui, sans-serif" font-size="21" font-weight="700">1. Problem</text><text x="24" y="88" fill="#625f58" font-family="Inter, system-ui, sans-serif" font-size="17">Identify the reader task</text></g><g transform="translate(342 220)"><rect width="220" height="150" rx="18" fill="#fffdf8" stroke="#d8d0c3" stroke-width="2"/><text x="24" y="48" fill="#2f302c" font-family="Inter, system-ui, sans-serif" font-size="21" font-weight="700">2. Check</text><text x="24" y="88" fill="#625f58" font-family="Inter, system-ui, sans-serif" font-size="17">Confirm file and context</text></g><g transform="translate(592 220)"><rect width="220" height="150" rx="18" fill="#fffdf8" stroke="#d8d0c3" stroke-width="2"/><text x="24" y="48" fill="#2f302c" font-family="Inter, system-ui, sans-serif" font-size="21" font-weight="700">3. Workflow</text><text x="24" y="88" fill="#625f58" font-family="Inter, system-ui, sans-serif" font-size="17">Choose the lightest path</text></g><g transform="translate(842 220)"><rect width="220" height="150" rx="18" fill="#fffdf8" stroke="#d8d0c3" stroke-width="2"/><text x="24" y="48" fill="#2f302c" font-family="Inter, system-ui, sans-serif" font-size="21" font-weight="700">4. Result</text><text x="24" y="88" fill="#625f58" font-family="Inter, system-ui, sans-serif" font-size="17">Read with less friction</text></g>
  <path d="M300 295h34m-10-11 12 11-12 11" fill="none" stroke="#8c867b" stroke-width="3" stroke-linecap="round" stroke-linejoin="round"/><path d="M550 295h34m-10-11 12 11-12 11" fill="none" stroke="#8c867b" stroke-width="3" stroke-linecap="round" stroke-linejoin="round"/><path d="M800 295h34m-10-11 12 11-12 11" fill="none" stroke="#8c867b" stroke-width="3" stroke-linecap="round" stroke-linejoin="round"/>
  <rect x="92" y="456" width="1016" height="82" rx="18" fill="#e7f2fb" stroke="#b9d7ea" stroke-width="2"/>
  <text x="124" y="506" fill="#2f302c" font-family="Inter, system-ui, sans-serif" font-size="21" font-weight="700">Explain the process before recommending a tool.</text>
  <text x="92" y="588" fill="#8a857b" font-family="Inter, system-ui, sans-serif" font-size="15">ONNELLAB Blog · Generated workflow asset</text>
</svg>
