<svg xmlns="http://www.w3.org/2000/svg" width="1200" height="675" viewBox="0 0 1200 675" role="img" aria-labelledby="title desc">
  <title id="title">대용량 TXT 파일 읽기 워크플로</title>
  <desc id="desc">ONNELLAB 워크플로 다이어그램 for 대용량 TXT 파일 리더.</desc>
  <rect width="1200" height="675" fill="#fbf7ef"/>
  <rect x="54" y="48" width="1092" height="579" rx="28" fill="#f7f2e9" stroke="#ded7ca" stroke-width="2"/>
  <text x="92" y="120" fill="#2f302c" font-family="Inter, system-ui, sans-serif" font-size="40" font-weight="720">대용량 TXT 파일 읽기 워크플로</text>
  <text x="92" y="164" fill="#6c675e" font-family="Inter, system-ui, sans-serif" font-size="20">실용 워크플로 · 대용량 TXT 파일 리더</text>
  <g transform="translate(92 220)"><rect width="220" height="150" rx="18" fill="#fffdf8" stroke="#d8d0c3" stroke-width="2"/><text x="24" y="48" fill="#2f302c" font-family="Inter, system-ui, sans-serif" font-size="21" font-weight="700">1. 문제</text><text x="24" y="88" fill="#625f58" font-family="Inter, system-ui, sans-serif" font-size="17">읽기 작업 확인</text></g><g transform="translate(342 220)"><rect width="220" height="150" rx="18" fill="#fffdf8" stroke="#d8d0c3" stroke-width="2"/><text x="24" y="48" fill="#2f302c" font-family="Inter, system-ui, sans-serif" font-size="21" font-weight="700">2. 점검</text><text x="24" y="88" fill="#625f58" font-family="Inter, system-ui, sans-serif" font-size="17">파일과 맥락 확인</text></g><g transform="translate(592 220)"><rect width="220" height="150" rx="18" fill="#fffdf8" stroke="#d8d0c3" stroke-width="2"/><text x="24" y="48" fill="#2f302c" font-family="Inter, system-ui, sans-serif" font-size="21" font-weight="700">3. 흐름</text><text x="24" y="88" fill="#625f58" font-family="Inter, system-ui, sans-serif" font-size="17">가벼운 경로 선택</text></g><g transform="translate(842 220)"><rect width="220" height="150" rx="18" fill="#fffdf8" stroke="#d8d0c3" stroke-width="2"/><text x="24" y="48" fill="#2f302c" font-family="Inter, system-ui, sans-serif" font-size="21" font-weight="700">4. 결과</text><text x="24" y="88" fill="#625f58" font-family="Inter, system-ui, sans-serif" font-size="17">마찰을 줄여 읽기</text></g>
  <path d="M300 295h34m-10-11 12 11-12 11" fill="none" stroke="#8c867b" stroke-width="3" stroke-linecap="round" stroke-linejoin="round"/><path d="M550 295h34m-10-11 12 11-12 11" fill="none" stroke="#8c867b" stroke-width="3" stroke-linecap="round" stroke-linejoin="round"/><path d="M800 295h34m-10-11 12 11-12 11" fill="none" stroke="#8c867b" stroke-width="3" stroke-linecap="round" stroke-linejoin="round"/>
  <rect x="92" y="456" width="1016" height="82" rx="18" fill="#e7f2fb" stroke="#b9d7ea" stroke-width="2"/>
  <text x="124" y="506" fill="#2f302c" font-family="Inter, system-ui, sans-serif" font-size="21" font-weight="700">도구를 추천하기 전에 과정을 먼저 설명합니다.</text>
  <text x="92" y="588" fill="#8a857b" font-family="Inter, system-ui, sans-serif" font-size="15">온넬랩 블로그 · 생성된 워크플로 자산</text>
</svg>
